<svg xmlns="http://www.w3.org/2000/svg" version="1.1" xmlns:xlink="http://www.w3.org/1999/xlink" xmlns:svgjs="http://svgjs.dev/svgjs" width="50" height="50" viewBox="0 0 50 50"><path fill="none" d="M49.752 25.297C51.554 25.297 53.15 24.013 54.135 22.038 54.676 20.952 55.033 19.658 55.14 18.253A6 6 0 0 0 55.2 17.47L54.864 17.408H54.831L52.997 17.175C54.004 16.593 53.471 15.323 53.223 14.897 53.15 14.771 53.098 14.697 53.098 14.697L53.056 14.727C50.191 16.79 47.845 17.574 47.845 17.574 46.55 18.085 44.382 18.445 44.382 18.445 44.738 22.313 47.007 25.297 49.752 25.297"></path><path fill="none" d="M52.441 26.247L53.162 24.747C52.185 25.694 51.014 26.247 49.752 26.247 48.462 26.247 47.264 25.668 46.274 24.679L47.308 26.984C47.067 26.588 46.134 26.387 45.034 26.291 45.459 27.076 46.513 27.713 47.876 28.021L49.752 31.07 51.629 28.021C53.285 27.646 54.486 26.789 54.655 25.769 53.591 25.742 52.683 25.849 52.441 26.247"></path><path fill="none" d="M78.284 66.624C76.954 67.148 77.584 70.888 77.584 70.889A2.7 2.7 0 0 0 76.699 70.474C77.065 74.45 79.395 77.514 82.218 77.514 85.039 77.514 87.369 74.45 87.736 70.474A2.7 2.7 0 0 0 86.851 70.889C86.851 70.888 87.481 67.149 86.151 66.624 86.151 66.624 84.316 67.515 82.218 67.572 80.119 67.515 78.284 66.624 78.284 66.624"></path><path fill="none" d="M22.367 70.816L20.533 70.582C21.54 70.002 21.007 68.73 20.759 68.305 20.685 68.18 20.634 68.106 20.634 68.106L20.591 68.136C17.726 70.199 15.38 70.983 15.38 70.983 14.086 71.494 11.917 71.853 11.917 71.853 12.273 75.722 14.542 78.706 17.288 78.706 19.09 78.706 20.685 77.422 21.671 75.447 22.213 74.361 22.57 73.067 22.675 71.662A6 6 0 0 0 22.736 70.879L22.401 70.817z"></path><path fill="none" d="M19.978 79.655L20.699 78.154C19.722 79.101 18.55 79.655 17.289 79.655 15.998 79.655 14.801 79.075 13.81 78.087L14.844 80.392C14.603 79.996 13.671 79.795 12.571 79.699 12.995 80.484 14.05 81.121 15.412 81.429L17.289 84.479 19.164 81.429C20.821 81.054 22.022 80.198 22.191 79.177 21.127 79.149 20.219 79.257 19.978 79.655"></path><path d="M75.913 68.206A7.1 7.1 0 0 0 75.914 70.244L75.93 70.424C76.332 74.974 78.994 78.489 82.219 78.489S88.106 74.973 88.507 70.424L88.523 70.244A7.3 7.3 0 0 0 88.524 68.206C88.057 64.982 85.413 62.512 82.22 62.512 79.024 62.512 76.38 64.982 75.913 68.206M86.851 70.889C87.183 70.658 87.488 70.536 87.736 70.474 87.37 74.45 85.04 77.514 82.218 77.514S77.066 74.45 76.699 70.474C76.948 70.537 77.252 70.658 77.584 70.889 77.584 70.888 76.954 67.149 78.284 66.624 78.284 66.624 80.119 67.515 82.218 67.572 84.316 67.514 86.151 66.624 86.151 66.624 87.48 67.148 86.851 70.888 86.851 70.889" fill="#f98f7c" data-fill-palette-color="accent"></path><path d="M87.737 77.66C87.723 77.659 87.708 77.658 87.693 77.655A8 8 0 0 0 87.339 77.615C87.339 77.627 87.336 77.639 87.335 77.651 87.333 77.686 87.327 77.719 87.323 77.755A1.7 1.7 0 0 1 87.149 78.328C86.53 79.889 84.524 82.847 83.342 84.526L83.1 81.038A2.04 2.04 0 0 0 83.932 80.228C84.069 79.984 84.152 79.717 84.152 79.446 84.152 79.446 83.271 79.837 82.372 79.837 82.321 79.837 82.269 79.835 82.219 79.832L82.065 79.837C81.166 79.837 80.284 79.446 80.284 79.446 80.284 79.717 80.369 79.984 80.505 80.228 80.695 80.568 80.992 80.861 81.337 81.038L81.094 84.527C79.912 82.847 77.906 79.889 77.286 78.329A1.7 1.7 0 0 1 77.113 77.756C77.109 77.72 77.103 77.687 77.101 77.652 77.101 77.64 77.098 77.628 77.097 77.616 76.977 77.627 76.86 77.64 76.742 77.656 76.728 77.659 76.713 77.66 76.699 77.661A8.44 8.44 0 0 0 69.436 86.017C69.436 90.676 73.214 90.665 77.874 90.665H86.564C91.224 90.665 95.002 90.676 95.002 86.017A8.44 8.44 0 0 0 87.737 77.66" fill="#f98f7c" data-fill-palette-color="accent"></path><path d="M45.576 37.318H53.93C58.409 37.318 62.041 38.11 62.041 33.63 62.041 30.001 59.656 26.93 56.369 25.894 57.761 26.05 58.982 26.29 58.982 26.29 56.205 24.763 56.276 19.283 56.276 19.283 56.761 8.669 49.757 9.224 49.757 9.224L49.752 9.241 49.747 9.224S42.743 8.669 43.228 19.283C43.228 19.283 43.3 24.763 40.522 26.29 40.522 26.29 41.27 26.239 42.27 26.221A8.11 8.11 0 0 0 37.464 33.63C37.464 38.11 41.095 37.318 45.576 37.318M51.63 28.021L49.753 31.07 47.877 28.021C46.514 27.712 45.46 27.076 45.035 26.291 46.135 26.387 47.068 26.588 47.309 26.984L46.275 24.679C47.265 25.668 48.463 26.247 49.753 26.247 51.014 26.247 52.186 25.694 53.163 24.747L52.442 26.247C52.683 25.85 53.591 25.742 54.657 25.769 54.487 26.789 53.286 27.646 51.63 28.021M47.845 17.574S50.191 16.791 53.056 14.727L53.098 14.697S53.15 14.771 53.223 14.897C53.471 15.323 54.004 16.593 52.997 17.175L54.831 17.408H54.864L55.2 17.47A6 6 0 0 1 55.14 18.253C55.034 19.658 54.676 20.952 54.135 22.038 53.15 24.013 51.554 25.297 49.752 25.297 47.006 25.297 44.737 22.314 44.381 18.445 44.382 18.445 46.55 18.085 47.845 17.574" fill="#f98f7c" data-fill-palette-color="accent"></path><path d="M23.906 79.303C25.298 79.458 26.519 79.699 26.519 79.699 23.742 78.173 23.813 72.692 23.813 72.692 24.298 62.078 17.293 62.632 17.293 62.632L17.288 62.649 17.283 62.632S10.278 62.077 10.763 72.692C10.763 72.692 10.834 78.172 8.057 79.699 8.057 79.699 8.805 79.648 9.805 79.63A8.11 8.11 0 0 0 5 87.038C5 91.517 8.631 90.726 13.112 90.726H21.466C25.946 90.726 29.578 91.517 29.578 87.038A8.11 8.11 0 0 0 23.906 79.303M19.165 81.429L17.29 84.479 15.413 81.429C14.05 81.12 12.996 80.484 12.572 79.699 13.672 79.796 14.604 79.997 14.845 80.392L13.811 78.087C14.802 79.075 15.999 79.655 17.29 79.655 18.55 79.655 19.723 79.101 20.7 78.154L19.979 79.655C20.22 79.257 21.128 79.149 22.193 79.176 22.023 80.197 20.822 81.054 19.165 81.429M22.676 71.661C22.571 73.066 22.214 74.36 21.672 75.446 20.687 77.421 19.091 78.705 17.289 78.705 14.543 78.705 12.274 75.722 11.918 71.852 11.918 71.852 14.086 71.493 15.381 70.982 15.381 70.982 17.727 70.199 20.592 68.135L20.635 68.105S20.686 68.179 20.76 68.304C21.008 68.73 21.541 70.001 20.534 70.581L22.368 70.815H22.402L22.737 70.877A6 6 0 0 1 22.676 71.661" fill="#f98f7c" data-fill-palette-color="accent"></path><path fill="#f98f7c" d="M17.289 60.75C17.98 60.75 18.54 60.189 18.54 59.499V51.365H80.966V59.499A1.252 1.252 0 0 0 83.469 59.499V50.114C83.469 49.423 82.908 48.863 82.218 48.863H51.005V40.5A1.252 1.252 0 0 0 48.502 40.5V48.862H17.289A1.25 1.25 0 0 0 16.038 50.113V59.498C16.038 60.189 16.598 60.75 17.289 60.75" data-fill-palette-color="accent"></path></svg>